<?xml version="1.0" standalone="no"?><!DOCTYPE svg PUBLIC "-//W3C//DTD SVG 1.1//EN" "http://www.w3.org/Graphics/SVG/1.1/DTD/svg11.dtd"><svg class="icon" width="200px" height="200.00px" viewBox="0 0 1024 1024" version="1.1" xmlns="http://www.w3.org/2000/svg"><path d="M0 440.146325v521.364816C0 995.905554 32.691719 1024 73.04556 1024h875.525108c40.353841 0 73.04556-28.094446 73.045561-62.488859V440.146325H0z" fill="#F0F0F1" /><path d="M948.570668 99.607582H73.04556A73.04556 73.04556 0 0 0 0 172.653143v267.493182h1021.616229V172.653143a73.04556 73.04556 0 0 0-73.045561-73.045561z" fill="#EC5044" /><path d="M258.468906 294.225474a51.080811 51.080811 0 0 1-51.080812-48.69704V51.080811a51.080811 51.080811 0 0 1 102.161623 0v194.617892a51.080811 51.080811 0 0 1-51.080811 48.526771zM735.223146 294.225474a51.080811 51.080811 0 0 1-51.080811-48.69704V51.080811a51.080811 51.080811 0 0 1 102.161622 0v194.617892a51.080811 51.080811 0 0 1-51.080811 48.526771zM447.467908 878.079149a48.526771 48.526771 0 0 1-34.053874-14.643166l-131.107416-134.512804a48.69704 48.69704 0 1 1 69.640173-68.107748l97.734619 100.288659 222.371799-210.282673a48.69704 48.69704 0 1 1 66.745594 70.832058L480.840705 864.798138a48.526771 48.526771 0 0 1-33.372797 13.281011z" fill="#495660" /></svg>